HIERARCHY
ROOT newVegas:Hips
{
	OFFSET 0.000000 96.479958 0.000000
	CHANNELS 6 Xposition Yposition Zposition Xrotation Yrotation Zrotation
	JOINT newVegas:Pelvis
	{
		OFFSET 0.000000 0.000000 0.000000
		CHANNELS 3 Xrotation Yrotation Zrotation
		JOINT newVegas:LeftUpLeg
		{
			OFFSET 18.735201 -5.666702 -4.541200
			CHANNELS 3 Xrotation Yrotation Zrotation
			JOINT newVegas:LeftLeg
			{
				OFFSET -0.021200 -31.938179 0.493100
				CHANNELS 3 Xrotation Yrotation Zrotation
				JOINT newVegas:LeftFoot
				{
					OFFSET 0.021200 -31.938179 -4.336299
					CHANNELS 3 Xrotation Yrotation Zrotation
					JOINT newVegas:LeftToeBase
					{
						OFFSET 0.943001 -26.722000 15.023500
						CHANNELS 3 Xrotation Yrotation Zrotation
						End Site
						{
							OFFSET 0.000000 30.670183 0.000000
						}
					}
				}
				JOINT newVegas:Left_PantLeg
				{
					OFFSET 0.663870 -9.044666 -1.108900
					CHANNELS 3 Xrotation Yrotation Zrotation
					End Site
					{
						OFFSET 1.415995 20.635357 0.000000
					}
				}
			}
		}
		JOINT newVegas:RightUpLeg
		{
			OFFSET -18.735201 -5.666702 -4.541200
			CHANNELS 3 Xrotation Yrotation Zrotation
			JOINT newVegas:RightLeg
			{
				OFFSET 0.018946 -31.938133 0.493100
				CHANNELS 3 Xrotation Yrotation Zrotation
				JOINT newVegas:RightFoot
				{
					OFFSET -0.018946 -31.938126 -4.336299
					CHANNELS 3 Xrotation Yrotation Zrotation
					JOINT newVegas:RightToeBase
					{
						OFFSET -0.943001 -26.722004 15.023500
						CHANNELS 3 Xrotation Yrotation Zrotation
						End Site
						{
							OFFSET 0.000000 30.670187 0.000000
						}
					}
				}
				JOINT newVegas:Right_PantLeg
				{
					OFFSET -0.661674 -9.044716 -1.108900
					CHANNELS 3 Xrotation Yrotation Zrotation
					End Site
					{
						OFFSET -1.415958 20.635269 0.000000
					}
				}
			}
		}
	}
	JOINT newVegas:Spine
	{
		OFFSET 0.000000 10.199997 -0.299500
		CHANNELS 3 Xrotation Yrotation Zrotation
		JOINT newVegas:Spine1
		{
			OFFSET 0.000000 11.900002 -1.516600
			CHANNELS 3 Xrotation Yrotation Zrotation
			JOINT newVegas:Spine2
			{
				OFFSET 0.000000 13.600006 -2.842500
				CHANNELS 3 Xrotation Yrotation Zrotation
				JOINT newVegas:Neck
				{
					OFFSET 0.000000 9.624100 -2.890100
					CHANNELS 3 Xrotation Yrotation Zrotation
					JOINT newVegas:Head
					{
						OFFSET 0.000000 14.068802 -1.351900
						CHANNELS 3 Xrotation Yrotation Zrotation
						JOINT newVegas:Hair_Back
						{
							OFFSET 0.000000 3.231903 -17.524799
							CHANNELS 3 Xrotation Yrotation Zrotation
							End Site
							{
								OFFSET 0.000000 19.849884 0.000000
							}
						}
						JOINT newVegas:Hair_Front
						{
							OFFSET 0.000000 31.260406 4.573800
							CHANNELS 3 Xrotation Yrotation Zrotation
							JOINT newVegas:Hair_Front1
							{
								OFFSET 0.000000 2.284103 11.993300
								CHANNELS 3 Xrotation Yrotation Zrotation
								JOINT newVegas:Hair_Front2
								{
									OFFSET 0.000000 2.284103 11.993300
									CHANNELS 3 Xrotation Yrotation Zrotation
									End Site
									{
										OFFSET 0.000000 12.208862 0.000000
									}
								}
							}
						}
						JOINT newVegas:Jowel
						{
							OFFSET 0.000000 -7.458206 6.864100
							CHANNELS 3 Xrotation Yrotation Zrotation
							End Site
							{
								OFFSET 0.000000 19.849884 0.000000
							}
						}
					}
				}
				JOINT newVegas:LeftShoulder
				{
					OFFSET 15.263000 10.923401 -0.547700
					CHANNELS 3 Xrotation Yrotation Zrotation
					JOINT newVegas:LeftArm
					{
						OFFSET 25.438599 -2.830597 -13.032500
						CHANNELS 3 Xrotation Yrotation Zrotation
						JOINT newVegas:LeftForeArm
						{
							OFFSET 29.960503 0.000000 0.000000
							CHANNELS 3 Xrotation Yrotation Zrotation
							JOINT newVegas:LeftHand
							{
								OFFSET 27.849251 0.000000 0.000000
								CHANNELS 3 Xrotation Yrotation Zrotation
								JOINT newVegas:LeftHandThumb1
								{
									OFFSET 4.487587 -3.305161 6.305391
									CHANNELS 3 Xrotation Yrotation Zrotation
									JOINT newVegas:LeftHandThumb2
									{
										OFFSET 5.480453 -3.164139 3.164143
										CHANNELS 3 Xrotation Yrotation Zrotation
										JOINT newVegas:LeftHandThumb3
										{
											OFFSET 5.159721 -2.978973 2.978967
											CHANNELS 3 Xrotation Yrotation Zrotation
											End Site
											{
												OFFSET 2.494507 5.926697 1.738678
											}
										}
									}
								}
								JOINT newVegas:LeftHandIndex1
								{
									OFFSET 18.578728 -0.527832 5.208049
									CHANNELS 3 Xrotation Yrotation Zrotation
									JOINT newVegas:LeftHandIndex2
									{
										OFFSET 3.192009 0.000000 0.000000
										CHANNELS 3 Xrotation Yrotation Zrotation
										JOINT newVegas:LeftHandIndex3
										{
											OFFSET 3.835129 0.000000 0.000000
											CHANNELS 3 Xrotation Yrotation Zrotation
											End Site
											{
												OFFSET -0.034599 3.816971 0.371180
											}
										}
									}
								}
								JOINT newVegas:LeftHandMiddle1
								{
									OFFSET 18.476105 0.000000 0.000000
									CHANNELS 3 Xrotation Yrotation Zrotation
									JOINT newVegas:LeftHandMiddle2
									{
										OFFSET 3.324875 0.000000 0.000000
										CHANNELS 3 Xrotation Yrotation Zrotation
										JOINT newVegas:LeftHandMiddle3
										{
											OFFSET 4.596550 0.000000 0.000000
											CHANNELS 3 Xrotation Yrotation Zrotation
											End Site
											{
												OFFSET 0.057701 4.578827 0.399218
											}
										}
									}
								}
								JOINT newVegas:LeftHandRing1
								{
									OFFSET 17.732719 0.121887 -4.201567
									CHANNELS 3 Xrotation Yrotation Zrotation
									JOINT newVegas:LeftHandRing2
									{
										OFFSET 2.733170 0.000000 0.000000
										CHANNELS 3 Xrotation Yrotation Zrotation
										JOINT newVegas:LeftHandRing3
										{
											OFFSET 3.178268 0.000000 0.000000
											CHANNELS 3 Xrotation Yrotation Zrotation
											End Site
											{
												OFFSET 0.119102 3.170624 0.185394
											}
										}
									}
								}
								JOINT newVegas:LeftHandPinky1
								{
									OFFSET 15.989624 -0.606689 -7.535461
									CHANNELS 3 Xrotation Yrotation Zrotation
									JOINT newVegas:LeftHandPinky2
									{
										OFFSET 2.538986 0.000000 0.000000
										CHANNELS 3 Xrotation Yrotation Zrotation
										JOINT newVegas:LeftHandPinky3
										{
											OFFSET 2.593102 0.000000 0.000000
											CHANNELS 3 Xrotation Yrotation Zrotation
											End Site
											{
												OFFSET -0.150902 2.584198 0.152708
											}
										}
									}
								}
							}
							JOINT newVegas:Left_Sleeve
							{
								OFFSET 0.267448 -0.649796 0.577675
								CHANNELS 3 Xrotation Yrotation Zrotation
								End Site
								{
									OFFSET 0.000000 15.991241 0.000000
								}
							}
							JOINT newVegas:Left_CapeC
							{
								OFFSET 15.715958 -8.608795 -6.935905
								CHANNELS 3 Xrotation Yrotation Zrotation
								JOINT newVegas:Left_CapeC1
								{
									OFFSET 0.000000 -8.688499 0.000000
									CHANNELS 3 Xrotation Yrotation Zrotation
									End Site
									{
										OFFSET 0.000000 8.688499 0.000000
									}
								}
							}
						}
						JOINT newVegas:Left_CapeB
						{
							OFFSET 26.118385 -8.608795 -7.079235
							CHANNELS 3 Xrotation Yrotation Zrotation
							JOINT newVegas:Left_CapeB1
							{
								OFFSET 0.000000 -8.688499 0.000000
								CHANNELS 3 Xrotation Yrotation Zrotation
								End Site
								{
									OFFSET 0.000000 8.688499 0.000000
								}
							}
						}
						JOINT newVegas:Left_CapeA
						{
							OFFSET 5.115639 -8.608795 -10.395809
							CHANNELS 3 Xrotation Yrotation Zrotation
							JOINT newVegas:Left_CapeA1
							{
								OFFSET 0.000000 -8.688499 0.000000
								CHANNELS 3 Xrotation Yrotation Zrotation
								End Site
								{
									OFFSET 0.000000 8.688499 0.000000
								}
							}
						}
					}
				}
				JOINT newVegas:RightShoulder
				{
					OFFSET -15.263000 10.923401 -0.547700
					CHANNELS 3 Xrotation Yrotation Zrotation
					JOINT newVegas:RightArm
					{
						OFFSET -25.438599 -2.830597 -13.032500
						CHANNELS 3 Xrotation Yrotation Zrotation
						JOINT newVegas:RightForeArm
						{
							OFFSET -29.960503 0.000000 0.000000
							CHANNELS 3 Xrotation Yrotation Zrotation
							JOINT newVegas:RightHand
							{
								OFFSET -27.849251 0.000000 0.000000
								CHANNELS 3 Xrotation Yrotation Zrotation
								JOINT newVegas:RightHandThumb1
								{
									OFFSET -4.487587 -3.305161 6.305391
									CHANNELS 3 Xrotation Yrotation Zrotation
									JOINT newVegas:RightHandThumb2
									{
										OFFSET -5.480453 -3.164139 3.164143
										CHANNELS 3 Xrotation Yrotation Zrotation
										JOINT newVegas:RightHandThumb3
										{
											OFFSET -5.159721 -2.978973 2.978967
											CHANNELS 3 Xrotation Yrotation Zrotation
											End Site
											{
												OFFSET -2.494507 5.926697 1.738678
											}
										}
									}
								}
								JOINT newVegas:RightHandIndex1
								{
									OFFSET -18.578728 -0.527832 5.208049
									CHANNELS 3 Xrotation Yrotation Zrotation
									JOINT newVegas:RightHandIndex2
									{
										OFFSET -3.192009 0.000000 0.000000
										CHANNELS 3 Xrotation Yrotation Zrotation
										JOINT newVegas:RightHandIndex3
										{
											OFFSET -3.835129 0.000000 0.000000
											CHANNELS 3 Xrotation Yrotation Zrotation
											End Site
											{
												OFFSET 0.034599 3.816971 0.371180
											}
										}
									}
								}
								JOINT newVegas:RightHandMiddle1
								{
									OFFSET -18.476105 0.000000 0.000000
									CHANNELS 3 Xrotation Yrotation Zrotation
									JOINT newVegas:RightHandMiddle2
									{
										OFFSET -3.324875 0.000000 0.000000
										CHANNELS 3 Xrotation Yrotation Zrotation
										JOINT newVegas:RightHandMiddle3
										{
											OFFSET -4.596550 0.000000 0.000000
											CHANNELS 3 Xrotation Yrotation Zrotation
											End Site
											{
												OFFSET -0.057701 4.578827 0.399218
											}
										}
									}
								}
								JOINT newVegas:RightHandRing1
								{
									OFFSET -17.732719 0.121887 -4.201567
									CHANNELS 3 Xrotation Yrotation Zrotation
									JOINT newVegas:RightHandRing2
									{
										OFFSET -2.733170 0.000000 0.000000
										CHANNELS 3 Xrotation Yrotation Zrotation
										JOINT newVegas:RightHandRing3
										{
											OFFSET -3.178268 0.000000 0.000000
											CHANNELS 3 Xrotation Yrotation Zrotation
											End Site
											{
												OFFSET -0.119102 3.170624 0.185394
											}
										}
									}
								}
								JOINT newVegas:RightHandPinky1
								{
									OFFSET -15.989624 -0.606689 -7.535461
									CHANNELS 3 Xrotation Yrotation Zrotation
									JOINT newVegas:RightHandPinky2
									{
										OFFSET -2.538986 0.000000 0.000000
										CHANNELS 3 Xrotation Yrotation Zrotation
										JOINT newVegas:RightHandPinky3
										{
											OFFSET -2.593102 0.000000 0.000000
											CHANNELS 3 Xrotation Yrotation Zrotation
											End Site
											{
												OFFSET 0.150902 2.584198 0.152708
											}
										}
									}
								}
							}
							JOINT newVegas:Right_CapeC
							{
								OFFSET -15.715958 -8.608795 -6.935905
								CHANNELS 3 Xrotation Yrotation Zrotation
								JOINT newVegas:Right_CapeC1
								{
									OFFSET 0.000000 -8.688499 0.000000
									CHANNELS 3 Xrotation Yrotation Zrotation
									End Site
									{
										OFFSET 0.000000 8.688499 0.000000
									}
								}
							}
							JOINT newVegas:Right_Sleeve
							{
								OFFSET -0.267448 -0.649994 0.577675
								CHANNELS 3 Xrotation Yrotation Zrotation
								End Site
								{
									OFFSET 0.000000 15.991302 0.000000
								}
							}
						}
						JOINT newVegas:Right_CapeA
						{
							OFFSET -5.115540 -8.608795 -10.395824
							CHANNELS 3 Xrotation Yrotation Zrotation
							JOINT newVegas:Right_CapeA1
							{
								OFFSET 0.000000 -8.688499 0.000000
								CHANNELS 3 Xrotation Yrotation Zrotation
								End Site
								{
									OFFSET 0.000000 8.688499 0.000000
								}
							}
						}
						JOINT newVegas:Right_CapeB
						{
							OFFSET -26.118187 -8.608795 -7.079266
							CHANNELS 3 Xrotation Yrotation Zrotation
							JOINT newVegas:Right_CapeB1
							{
								OFFSET 0.000000 -8.688499 0.000000
								CHANNELS 3 Xrotation Yrotation Zrotation
								End Site
								{
									OFFSET 0.000000 8.688499 0.000000
								}
							}
						}
					}
				}
				JOINT newVegas:Left_Collar
				{
					OFFSET 18.625099 8.655502 8.828100
					CHANNELS 3 Xrotation Yrotation Zrotation
					JOINT newVegas:Left_Collar1
					{
						OFFSET 14.783401 10.540405 -1.259500
						CHANNELS 3 Xrotation Yrotation Zrotation
						End Site
						{
							OFFSET 0.000000 18.199875 0.000000
						}
					}
				}
				JOINT newVegas:Collar_Back
				{
					OFFSET 0.000000 15.630707 -20.132601
					CHANNELS 3 Xrotation Yrotation Zrotation
					End Site
					{
						OFFSET 0.000000 22.523010 0.000000
					}
				}
				JOINT newVegas:Left_Peck
				{
					OFFSET 17.239599 -5.132599 25.482599
					CHANNELS 3 Xrotation Yrotation Zrotation
					End Site
					{
						OFFSET 0.000000 22.523010 0.000000
					}
				}
				JOINT newVegas:Right_Peck
				{
					OFFSET -17.239599 -5.132202 25.482599
					CHANNELS 3 Xrotation Yrotation Zrotation
					End Site
					{
						OFFSET 0.000000 22.523010 0.000000
					}
				}
				JOINT newVegas:Right_Collar
				{
					OFFSET -18.625099 8.655792 8.828100
					CHANNELS 3 Xrotation Yrotation Zrotation
					JOINT newVegas:Right_Collar1
					{
						OFFSET -14.783401 10.539993 -1.259500
						CHANNELS 3 Xrotation Yrotation Zrotation
						End Site
						{
							OFFSET 0.000000 18.199631 0.000000
						}
					}
				}
			}
		}
		JOINT newVegas:Belly
		{
			OFFSET 0.000000 -6.540398 9.014299
			CHANNELS 3 Xrotation Yrotation Zrotation
			End Site
			{
				OFFSET 0.000000 11.566666 0.000000
			}
		}
	}
	JOINT newVegas:ElvisFacialAnim_Joint
	{
		OFFSET 1.000000 -95.330101 -8.825800
		CHANNELS 3 Xrotation Yrotation Zrotation
		End Site
		{
			OFFSET 0.000000 35.315800 0.000000
		}
	}
}
MOTION
Frames: 4
Frame Time: 0.033333
-0.779280 82.818405 4.636769 20.691896 -50.774445 18.305959 0.000000 0.000000 -0.000000 -66.085748 -5.386263 12.483899 83.556354 8.678194 1.389933 44.889861 2.913285 9.251572 0.000000 0.000001 0.000001 0.000001 -0.000003 0.000003 -46.218357 -4.019993 2.965894 66.211560 -8.584245 0.613953 -34.479580 1.169838 -3.463769 0.000000 0.000001 -0.000000 -0.000001 -0.000002 -0.000000 16.413605 5.748847 -5.908015 12.321766 5.733798 -2.169152 -2.126859 5.073135 -2.017460 -0.656193 2.785597 -2.286024 -0.656211 2.785601 -2.286019 0.000000 0.000000 -0.000000 -0.656203 2.785606 -2.286019 -0.656197 2.785598 -2.286019 0.000001 -0.000001 0.000000 0.000000 0.000000 -0.000000 1.145101 -1.639886 -0.227173 -67.335693 9.725938 -24.293905 47.002469 -98.717803 45.002033 -40.190097 4.345771 42.003498 17.551590 -5.699247 -12.932325 10.850572 26.127862 8.644737 0.000002 -0.000003 -0.000005 13.981010 1.201607 -55.004251 0.370691 1.161821 -65.441586 0.000000 0.000000 0.000001 7.504781 1.174418 -63.778374 1.807852 1.475611 -64.567916 -0.000001 0.000001 0.000000 8.573181 2.166918 -75.148767 -0.207776 1.009359 -57.854974 -0.000001 -0.000001 0.000002 10.030012 13.637274 -84.750299 0.877099 0.062436 -64.595592 0.000001 -0.000003 0.000002 0.000001 -0.000001 -0.000000 0.000001 -0.000001 -0.000000 -0.000000 -0.000000 0.000000 -0.000001 -0.000002 0.000002 -0.000000 -0.000003 0.000000 -0.000001 -0.000002 0.000002 -0.000002 -0.000003 0.000001 7.980285 5.254406 11.440918 -30.575431 3.471743 43.674446 -51.390931 12.064050 22.887940 51.255229 16.624185 -11.665535 1.626616 -7.245458 -3.781874 7.929511 -15.164492 -0.674123 -0.000000 0.000001 -0.000000 9.690925 -10.435354 25.203840 0.008858 -0.019911 49.063383 0.000000 -0.000000 0.000001 7.380682 -8.771721 32.771418 0.648487 -0.298400 66.560726 0.000001 0.000002 -0.000000 10.655817 -10.865904 31.775181 0.016515 -0.024290 68.720596 -0.000000 0.000001 -0.000000 8.148353 -12.923153 49.305671 0.015907 -0.024221 67.413045 -0.000000 -0.000000 -0.000000 -0.000003 0.000000 0.000000 -0.000002 0.000002 0.000000 -0.000003 0.000000 -0.000001 -0.000002 -0.000001 0.000002 -0.000002 0.000000 0.000001 -0.000002 -0.000001 0.000002 -0.000002 -0.000000 0.000001 -0.000000 -0.000002 0.000002 -0.000000 -0.000002 0.000002 -0.000000 -0.000002 0.000002 -0.000000 -0.000002 0.000002 -0.000000 -0.000002 0.000002 -0.000000 -0.000002 0.000002 -0.000000 -0.000002 0.000002 -0.000000 0.000001 -0.000001 0.000000 0.000000 -0.000000 
-14.331230 84.687302 3.429955 24.210811 -51.720388 22.974559 0.000000 0.000000 0.000000 -73.861959 -2.722749 9.867670 84.042882 8.718353 -0.324977 32.991450 -0.412770 -0.596359 0.000003 0.000001 0.000000 0.000003 0.000003 -0.000001 -29.667972 -6.340471 9.764943 51.063249 -7.941992 0.596029 -37.790713 4.546626 -11.119632 0.000000 -0.000001 0.000000 0.000000 0.000001 -0.000001 16.172245 6.967993 -8.262306 10.526739 7.582921 -3.822664 -1.980030 6.487405 -3.707194 -1.108584 2.542959 -1.572970 -1.108569 2.542950 -1.572954 0.000001 0.000000 -0.000000 -1.108585 2.542961 -1.572967 -1.108511 2.542944 -1.572967 0.000000 -0.000001 -0.000000 0.000001 0.000000 0.000000 1.232234 -1.059099 -0.250253 -67.767730 8.982991 -25.414173 43.200100 -98.514530 40.859124 -39.924354 2.611530 41.809002 17.551593 -5.699238 -12.932322 10.850581 26.127861 8.644741 -0.000001 -0.000003 -0.000006 13.981008 1.201607 -55.004248 0.370690 1.161818 -65.441579 -0.000001 -0.000001 0.000001 7.504781 1.174413 -63.778380 1.807855 1.475613 -64.567909 0.000002 -0.000000 -0.000001 8.573175 2.166918 -75.148767 -0.207778 1.009357 -57.854974 0.000002 0.000001 0.000000 10.030012 13.637279 -84.750299 0.877105 0.062436 -64.595599 -0.000001 -0.000005 -0.000001 -0.000002 0.000001 0.000000 -0.000002 0.000001 0.000000 -0.000002 0.000001 0.000001 -0.000000 0.000003 -0.000001 -0.000000 0.000002 -0.000003 -0.000000 0.000003 -0.000001 -0.000002 0.000002 -0.000002 7.036484 7.126611 6.944265 -38.195138 10.044327 44.775694 -49.901997 16.280801 23.762414 49.780239 13.234737 -11.227595 2.498353 -6.565118 -1.886604 8.869873 -17.344173 -0.956923 0.000001 -0.000002 0.000003 9.428474 -11.360630 30.737105 0.012682 -0.022599 59.055250 0.000001 0.000000 0.000001 7.750175 -9.215879 35.874759 0.482068 -0.183193 71.182025 0.000002 0.000000 -0.000000 10.750864 -10.905861 35.072700 0.018173 -0.024913 72.718927 0.000001 -0.000001 -0.000002 8.122470 -12.860123 53.128111 0.017790 -0.024926 71.788813 0.000001 -0.000000 0.000001 -0.000002 0.000001 -0.000001 -0.000003 -0.000000 -0.000004 -0.000002 0.000001 -0.000002 -0.000000 0.000001 0.000003 -0.000001 0.000000 0.000002 -0.000000 0.000001 0.000003 -0.000000 0.000000 0.000004 0.000003 -0.000000 0.000001 0.000003 -0.000000 0.000001 0.000003 -0.000000 0.000001 0.000003 -0.000000 0.000001 0.000003 -0.000000 0.000001 0.000003 -0.000000 0.000001 0.000003 -0.000000 0.000001 0.000001 -0.000000 -0.000000 0.000000 0.000000 0.000000 
-28.132294 86.824684 2.688016 26.118193 -51.457928 25.789427 0.000001 -0.000001 0.000000 -77.571080 0.821466 3.910831 76.797903 8.704079 -1.645814 23.555407 -1.070892 -4.134318 -0.000002 -0.000001 -0.000000 -0.000001 0.000001 0.000000 -17.027660 -8.215258 12.082950 35.891527 -3.438399 6.046823 -24.281785 6.524347 -21.306823 0.000001 0.000002 -0.000000 -0.000000 0.000000 -0.000002 14.358789 8.682513 -10.652985 9.099579 9.249920 -4.741070 -1.403969 7.768471 -4.650389 -1.051670 2.168462 -1.030918 -1.051673 2.168458 -1.030909 0.000000 0.000000 -0.000000 -1.051664 2.168459 -1.030912 -1.051662 2.168448 -1.030912 -0.000004 0.000001 -0.000001 0.000000 0.000000 -0.000000 1.275211 -0.773087 -0.262163 -67.893378 6.657763 -28.325040 32.041326 -97.360009 28.950682 -39.788878 1.631183 41.089793 17.551590 -5.699243 -12.932324 10.850577 26.127854 8.644737 0.000003 0.000000 -0.000004 13.981010 1.201611 -55.004244 0.370689 1.161823 -65.441586 -0.000002 0.000001 0.000000 7.504782 1.174422 -63.778380 1.807854 1.475609 -64.567916 0.000002 -0.000001 0.000002 8.573178 2.166918 -75.148767 -0.207780 1.009358 -57.854974 0.000000 -0.000002 0.000000 10.030011 13.637276 -84.750299 0.877102 0.062436 -64.595592 0.000000 -0.000003 -0.000002 0.000001 -0.000001 -0.000003 0.000001 -0.000001 -0.000003 0.000000 -0.000001 -0.000002 -0.000000 -0.000002 0.000001 -0.000000 -0.000003 0.000001 -0.000000 -0.000002 0.000001 -0.000002 -0.000003 -0.000000 6.559972 8.255535 5.291707 -41.121700 14.821207 47.007688 -51.317076 17.448680 26.158866 50.142994 11.789087 -13.977625 3.453636 -5.759870 0.184053 9.915529 -19.761044 -1.225100 -0.000000 0.000000 0.000001 9.477403 -12.536465 36.903625 0.017401 -0.024748 70.115020 -0.000002 -0.000000 0.000003 8.241147 -9.687626 39.313319 0.282496 -0.089734 76.297578 0.000001 0.000001 -0.000000 10.906274 -10.976742 38.731995 0.020053 -0.025431 77.144685 0.000002 0.000001 0.000000 8.133842 -12.857698 57.378561 0.019960 -0.025523 76.632243 0.000002 0.000001 0.000001 0.000001 0.000001 -0.000003 0.000001 -0.000003 -0.000001 0.000001 0.000000 -0.000003 -0.000000 -0.000002 0.000003 0.000000 -0.000002 0.000004 -0.000000 -0.000002 0.000003 0.000000 -0.000002 0.000006 -0.000000 -0.000000 -0.000000 -0.000000 -0.000000 -0.000000 -0.000000 -0.000000 -0.000000 -0.000000 -0.000000 -0.000000 -0.000000 -0.000000 -0.000000 -0.000000 -0.000000 -0.000000 -0.000000 -0.000000 -0.000000 -0.000002 0.000001 -0.000000 0.000001 -0.000001 0.000000 
-42.471539 88.257980 2.881815 26.403239 -50.426645 26.646711 0.000001 0.000001 -0.000000 -76.205534 3.331238 -2.183863 62.389598 8.250927 -2.928468 19.872000 -1.243027 -6.178871 -0.000000 -0.000001 -0.000000 0.000001 -0.000001 0.000000 -2.171081 -5.929622 18.290150 12.703462 -3.660198 6.570785 1.477490 4.848777 -29.479592 -0.000000 0.000003 -0.000001 0.000001 0.000000 -0.000000 11.403801 10.801236 -12.688439 8.288415 10.591697 -5.047614 -0.313522 8.923628 -4.946235 -0.671650 1.731831 -0.628695 -0.671631 1.731830 -0.628690 -0.000001 -0.000001 0.000000 -0.671566 1.731832 -0.628693 -0.671689 1.731822 -0.628686 -0.000002 0.000000 -0.000001 -0.000001 -0.000001 0.000000 1.158280 -1.177181 -0.234735 -68.272242 3.556474 -31.931923 13.543142 -96.468198 9.513770 -39.847566 1.862676 40.128632 17.551593 -5.699240 -12.932323 10.850569 26.127859 8.644732 0.000000 -0.000003 -0.000005 13.981010 1.201607 -55.004248 0.370692 1.161820 -65.441586 -0.000001 -0.000002 0.000000 7.504784 1.174416 -63.778374 1.807857 1.475607 -64.567916 -0.000001 -0.000003 0.000003 8.573180 2.166918 -75.148767 -0.207781 1.009358 -57.854967 0.000001 0.000001 -0.000002 10.030010 13.637274 -84.750299 0.877099 0.062436 -64.595592 -0.000000 -0.000005 0.000001 -0.000001 -0.000003 0.000004 -0.000001 -0.000003 0.000004 -0.000002 -0.000002 0.000005 -0.000001 0.000002 -0.000002 -0.000000 0.000001 -0.000002 -0.000001 0.000002 -0.000002 -0.000002 0.000001 -0.000003 6.351442 8.626165 5.173534 -38.055280 17.232810 47.193059 -58.732817 14.158230 30.214708 53.111247 13.614584 -19.524533 4.233997 -5.054120 1.872730 10.786110 -21.760670 -1.410112 -0.000000 0.000000 0.000006 9.807150 -13.582458 42.037868 0.021529 -0.025795 79.252591 -0.000001 0.000000 -0.000001 8.710579 -10.055803 42.157126 0.108881 -0.040554 80.524303 0.000000 -0.000001 0.000001 11.076803 -11.051697 41.762700 0.021630 -0.025790 80.801274 -0.000002 0.000001 0.000001 8.181780 -12.903994 60.906074 0.021764 -0.026004 80.633901 0.000001 0.000003 0.000001 0.000001 0.000002 -0.000001 0.000002 -0.000000 -0.000001 0.000001 0.000001 -0.000000 -0.000000 0.000001 -0.000001 -0.000001 0.000000 -0.000001 -0.000000 0.000001 -0.000001 -0.000001 -0.000000 0.000001 0.000000 -0.000001 -0.000001 0.000000 -0.000001 -0.000001 0.000000 -0.000001 -0.000001 0.000000 -0.000001 -0.000001 0.000000 -0.000001 -0.000001 0.000000 -0.000001 -0.000001 0.000000 -0.000001 -0.000001 -0.000000 0.000000 0.000001 0.000001 0.000001 -0.000000 
